<?xml version="1.0" standalone="no"?>
<!DOCTYPE svg PUBLIC "-//W3C//DTD SVG 20010904//EN"
 "http://www.w3.org/TR/2001/REC-SVG-20010904/DTD/svg10.dtd">
<svg version="1.0" xmlns="http://www.w3.org/2000/svg"
 width="500.000000pt" height="500.000000pt" viewBox="0 0 500.000000 500.000000"
 preserveAspectRatio="xMidYMid meet">

<g transform="translate(0.000000,500.000000) scale(0.100000,-0.100000)"
fill="#000000" stroke="none">
<path d="M1290 3862 c0 -16 56 -90 114 -151 l61 -64 -49 34 c-27 19 -78 61
-113 93 -35 32 -66 56 -70 53 -14 -14 24 -71 86 -129 l66 -62 -50 28 c-27 16
-69 44 -92 62 -46 38 -53 40 -53 19 0 -18 62 -79 122 -118 27 -16 46 -32 44
-34 -2 -2 -47 16 -100 41 -53 24 -98 41 -101 36 -9 -14 66 -71 139 -106 83
-40 74 -44 -21 -9 -37 14 -70 22 -75 17 -11 -11 7 -26 84 -68 53 -28 59 -34
36 -34 -16 0 -28 -4 -28 -9 0 -14 41 -41 62 -41 12 0 17 -7 15 -22 -2 -18 6
-25 41 -37 32 -12 42 -20 42 -37 0 -13 11 -31 24 -41 13 -11 25 -28 28 -38 2
-11 16 -26 31 -33 16 -8 31 -21 35 -30 20 -54 65 -95 215 -195 89 -59 207
-131 262 -158 113 -57 147 -60 196 -13 24 23 33 26 70 20 71 -11 86 -26 105
-101 5 -21 -4 -29 -101 -86 -112 -66 -139 -94 -112 -113 8 -7 16 -20 19 -31 2
-14 11 -20 31 -20 23 1 27 -3 27 -26 0 -34 32 -63 59 -54 16 5 21 2 21 -13 0
-28 27 -46 68 -45 20 1 45 -5 56 -13 28 -19 126 -18 154 2 15 10 32 14 49 9
32 -8 73 18 73 46 0 16 4 19 20 14 28 -9 50 11 50 46 0 24 4 28 33 31 24 2 33
8 35 26 2 12 8 22 13 22 5 0 9 11 9 25 0 20 -17 34 -105 85 -58 34 -107 65
-109 69 -3 4 1 29 8 56 11 45 16 51 52 62 59 18 80 15 110 -12 38 -35 65 -40
122 -21 96 32 479 276 510 325 9 14 22 32 29 39 7 7 13 20 13 27 0 8 9 17 20
20 11 4 28 19 38 33 9 15 24 33 34 40 9 7 18 24 20 39 2 21 11 29 46 41 34 11
42 18 40 35 -2 15 4 22 25 28 56 15 76 49 30 49 -25 0 -21 4 27 31 100 54 124
100 33 62 -85 -36 -111 -35 -38 2 80 39 140 85 134 103 -3 9 -32 -1 -89 -29
-140 -68 -171 -75 -77 -19 60 37 137 108 137 127 0 20 -9 16 -64 -26 -28 -21
-67 -47 -86 -56 -30 -16 -27 -10 27 42 101 97 111 159 12 69 -33 -29 -88 -73
-122 -97 l-62 -43 66 64 c71 70 123 142 117 161 -2 7 -26 -14 -54 -45 -45 -53
-174 -166 -189 -166 -4 0 21 30 54 67 34 37 61 71 61 75 0 21 -31 -1 -156
-104 -74 -62 -139 -114 -144 -116 -5 -2 1 15 13 37 33 61 14 60 -47 -2 -83
-84 -374 -270 -557 -356 -119 -56 -132 -57 -169 -21 -42 41 -96 42 -143 1 -29
-26 -38 -29 -68 -22 -117 26 -538 281 -652 393 -32 32 -60 58 -63 58 -11 0 -2
-39 17 -69 l20 -34 -38 31 c-21 16 -87 71 -147 121 -111 93 -156 117 -118 64
11 -16 34 -41 52 -58 17 -16 36 -39 42 -49 19 -35 -51 21 -144 116 -83 85 -98
97 -98 80z"/>
<path d="M2682 2131 c-30 -10 -67 -29 -84 -41 l-30 -22 -37 36 c-36 35 -38 36
-119 36 l-82 0 0 -66 0 -66 -42 37 c-23 19 -67 48 -98 62 -52 26 -65 28 -222
31 l-168 4 0 -344 0 -344 53 -52 53 -52 104 0 c146 0 233 15 296 49 l53 28 38
-39 38 -39 80 3 80 3 3 63 3 63 45 -40 c92 -80 194 -109 334 -92 49 6 102 16
116 21 21 8 31 7 44 -5 14 -12 36 -15 96 -13 l79 3 3 340 2 339 -52 53 -52 53
-83 0 c-78 0 -83 -1 -83 -21 0 -17 -3 -19 -13 -11 -49 41 -263 55 -355 23z
m284 -16 l51 -15 1 -66 c1 -59 -1 -65 -16 -59 -34 15 -128 35 -163 35 -97 0
-206 -68 -228 -142 -7 -27 -9 -15 -10 62 -1 52 -4 105 -7 116 -5 18 3 26 48
48 30 14 74 31 98 36 57 11 160 5 226 -15z m-775 -28 c31 -15 75 -47 98 -72
l41 -45 0 -174 0 -175 -30 -34 c-80 -92 -156 -117 -352 -117 l-138 0 0 326 0
326 163 -4 c153 -3 165 -4 218 -31z m289 -49 c0 -52 -6 -98 -16 -125 l-17 -43
-27 38 c-15 20 -37 46 -49 56 -18 16 -21 30 -21 88 l0 68 65 0 65 0 0 -82z
m720 -243 c0 -282 -2 -325 -15 -325 -13 0 -15 22 -15 142 l0 142 -57 60 c-55
55 -55 63 0 41 15 -6 17 1 17 77 0 83 0 85 -35 118 -19 19 -35 42 -35 52 0 16
9 18 70 18 l70 0 0 -325z m-152 221 c1 -30 -2 -57 -8 -61 -6 -4 -10 18 -10 60
0 79 15 80 18 1z m195 37 c-7 -2 -13 -9 -13 -15 0 -6 7 -8 14 -5 10 4 13 1 9
-9 -3 -7 -1 -14 5 -14 6 0 12 4 14 9 2 5 9 2 17 -6 11 -12 11 -14 0 -12 -26 3
-39 -1 -39 -12 0 -6 6 -9 13 -6 17 7 44 -9 34 -20 -5 -4 -12 -1 -16 6 -7 11
-10 11 -14 0 -5 -12 -7 -11 -16 1 -5 8 -13 11 -18 7 -4 -5 -1 -12 7 -18 13 -8
13 -10 0 -19 -10 -6 -11 -10 -2 -10 6 0 12 -5 12 -11 0 -6 -6 -9 -12 -6 -9 2
-13 26 -13 68 -1 71 1 79 18 78 9 0 9 -2 0 -6z m-729 -19 c3 -8 2 -12 -4 -9
-6 3 -10 10 -10 16 0 14 7 11 14 -7z m596 -92 l0 -65 -25 23 c-22 20 -25 32
-25 88 l0 65 25 -23 c22 -20 25 -32 25 -88z m-555 69 c-3 -6 -11 -11 -16 -11
-5 0 -4 6 3 14 14 16 24 13 13 -3z m-2 -38 c-3 -7 0 -13 6 -13 6 0 11 5 11 12
0 6 3 8 6 5 4 -4 1 -13 -6 -22 -11 -13 -15 -13 -31 6 -23 27 -23 25 0 25 11 0
17 -5 14 -13z m-29 -25 c-1 -10 7 -14 25 -13 l26 1 2 -200 3 -201 -41 44 -40
45 3 173 c2 113 6 172 13 169 5 -2 10 -10 9 -18z m753 -2 c-4 -11 -1 -13 11
-9 14 5 14 3 -3 -16 -18 -20 -18 -24 -4 -34 13 -10 16 -50 18 -261 l2 -248
-40 33 -41 34 1 231 c0 211 2 231 17 230 9 0 17 6 17 14 1 17 13 40 22 40 3 0
3 -7 0 -14z m-542 -17 c1 -24 15 -38 33 -32 9 4 -2 -13 -25 -38 -24 -24 -43
-51 -43 -60 0 -9 -3 -19 -7 -22 -10 -11 -11 -57 -3 -99 7 -34 6 -36 -11 -25
-31 19 -59 88 -59 146 0 37 3 50 12 45 6 -4 8 -3 5 4 -11 17 4 44 21 37 9 -3
24 4 36 17 16 17 17 20 3 15 -9 -3 -19 -1 -23 5 -4 6 -3 8 3 5 6 -4 16 0 23 8
15 18 35 15 35 -6z m-315 -59 c22 -44 44 -197 35 -248 -3 -22 -14 -48 -24 -59
-10 -10 -16 -23 -14 -28 2 -6 -9 -23 -23 -38 -30 -33 -54 -24 -34 13 8 15 8
20 1 16 -15 -9 -14 7 1 22 8 8 8 15 0 25 -15 17 -10 60 12 111 20 48 21 147 2
210 l-15 48 21 -19 c11 -10 28 -34 38 -53z m-52 -75 c0 -38 -4 -81 -8 -95 -5
-15 -8 21 -8 95 0 74 3 110 8 95 4 -14 8 -56 8 -95z m312 105 c0 -5 -4 -10
-10 -10 -5 0 -10 5 -10 10 0 6 5 10 10 10 6 0 10 -4 10 -10z m316 -1 c25 -7
44 -17 44 -25 0 -11 -25 -14 -125 -14 l-125 0 0 -74 0 -73 55 -52 c63 -60 58
-67 -38 -58 -79 7 -97 27 -97 103 0 30 6 69 14 87 39 91 154 136 272 106z
m304 1 c0 -5 -4 -10 -10 -10 -5 0 -10 5 -10 10 0 6 5 10 10 10 6 0 10 -4 10
-10z m-821 -67 c-1 -44 -3 -51 -8 -28 -6 29 -3 85 5 85 2 0 3 -26 3 -57z m561
-35 c1 -24 3 -88 6 -143 7 -142 1 -155 -72 -178 -78 -25 -222 -26 -284 -3 -92
34 -90 32 -90 164 1 111 2 115 15 79 33 -95 142 -150 260 -133 l45 7 0 70 0
69 -55 0 -55 0 0 55 0 55 115 0 115 0 0 -42z m108 -188 l3 -141 -40 2 -40 3 1
174 1 173 36 -35 37 -36 2 -140z m-668 -65 l0 -75 -40 0 -39 0 24 36 c14 20
30 54 37 75 6 22 13 39 15 39 1 0 3 -34 3 -75z m100 -105 l0 -64 -40 39 c-39
38 -40 41 -40 108 l0 70 40 -44 c37 -42 39 -48 40 -109z m-256 113 c-3 -16 -6
-35 -7 -43 -1 -16 -39 -21 -53 -7 -6 5 52 77 62 77 1 0 0 -12 -2 -27z m-9 -84
c11 -16 1 -19 -13 -3 -7 8 -8 14 -3 14 5 0 13 -5 16 -11z"/>
<path d="M1950 1795 l0 -208 73 5 c141 9 212 79 212 208 -1 119 -69 183 -213
196 l-72 7 0 -208z m34 122 c-1 -9 2 -14 7 -11 5 3 18 -4 30 -15 18 -16 19
-22 9 -41 -7 -12 -8 -20 -2 -16 6 4 10 -36 11 -109 l2 -115 -41 0 -41 0 2 148
c1 94 6 150 13 155 8 5 6 10 -4 18 -13 9 -13 10 0 6 8 -2 14 -11 14 -20z m217
-44 c18 -18 22 -90 9 -138 -13 -46 -75 -115 -104 -115 -8 0 -21 -3 -30 -6 -14
-5 -16 11 -16 136 l0 142 65 -4 c36 -2 70 -9 76 -15z"/>
<path d="M1999 1881 c7 -5 11 -14 7 -20 -5 -7 -1 -9 8 -5 20 8 20 20 0 28 -23
9 -31 7 -15 -3z"/>
<path d="M2525 1911 c-3 -7 0 -8 9 -5 17 7 22 -11 6 -19 -6 -3 -5 -4 2 -3 16
3 17 28 1 33 -6 2 -14 -1 -18 -6z"/>
<path d="M2710 1930 c0 -5 5 -10 10 -10 6 0 10 5 10 10 0 6 -4 10 -10 10 -5 0
-10 -4 -10 -10z"/>
<path d="M2706 1894 c-11 -29 6 -42 33 -25 12 8 12 12 -2 25 -20 20 -23 20
-31 0z m24 -14 c0 -5 -4 -10 -10 -10 -5 0 -10 5 -10 10 0 6 5 10 10 10 6 0 10
-4 10 -10z"/>
<path d="M2672 1836 c7 -8 15 -12 17 -11 5 6 -10 25 -20 25 -5 0 -4 -6 3 -14z"/>
<path d="M2377 1509 c-10 -11 -17 -23 -14 -25 2 -2 13 7 25 21 12 14 18 25 14
25 -4 0 -16 -9 -25 -21z"/>
<path d="M3096 1752 c-2 -4 4 -8 14 -8 10 0 16 4 14 8 -3 4 -9 8 -14 8 -5 0
-11 -4 -14 -8z"/>
<path d="M2290 1530 c-13 -11 -20 -23 -17 -27 6 -5 47 33 47 44 0 7 -8 2 -30
-17z"/>
</g>
</svg>
